# xmcd
#
# Track frame offsets:
#	150
#	23292
#	41707
#	62515
#	82362
#	104512
#	125687
#	151842
#	171192
#	197812
#	220430
#	241492
#	263920
#	287487
#	309382
#
# Disc length: 4400 seconds
#
# Revision: 1
# Processed by: cddbd v1.5.1PL0 Copyright (c) Steve Scherf et al.
# Submitted via: CDex 1.50Beta5
#
DISCID=d5112e0f
DTITLE=鈴木聖美 - Stories
DYEAR=1995
DGENRE=
TTITLE0=Time Goes By
TTITLE1=Teddy Boy
TTITLE2=TOUCH THE WORLD
TTITLE3=愛情物語
TTITLE4=Knock on my heart
TTITLE5=聖・VOICE
TTITLE6=Downtown Story
TTITLE7=Love Station
TTITLE8=For My Friend
TTITLE9=移り変わるものの中で
TTITLE10=WAIT AND SEE
TTITLE11=さよならできないKISSなんかしないで
TTITLE12=めぐり逢えたから
TTITLE13=恋のゆくえ
TTITLE14=Good-bye
EXTD=
EXTT0=
EXTT1=
EXTT2=
EXTT3=
EXTT4=
EXTT5=
EXTT6=
EXTT7=
EXTT8=
EXTT9=
EXTT10=
EXTT11=
EXTT12=
EXTT13=
EXTT14=
PLAYORDER=
